<svg width="182" height="42" viewBox="0 0 182 42" fill="none" xmlns="http://www.w3.org/2000/svg">
<path d="M164.623 15.1805C164.815 15.0618 164.954 14.904 165.207 14.7409C166.384 13.978 167.702 13.5867 169.178 13.6285C176.279 13.8306 181.156 18.9039 181.905 25.7953C182.207 28.5854 181.787 31.2082 180.644 33.6636C178.434 38.4056 173.915 41.5292 168.614 41.271C166.79 41.1831 165.199 40.6197 163.842 39.5807C163.346 39.2025 162.806 38.613 162.309 38.1161C162.301 38.1081 162.292 38.1023 162.281 38.0994C162.27 38.0964 162.259 38.0964 162.248 38.0994C162.237 38.1023 162.227 38.108 162.22 38.116C162.212 38.124 162.206 38.1339 162.204 38.1448C162.115 38.4891 162.01 38.8382 161.888 39.1921C161.565 40.1389 161.312 40.8523 160.138 40.851C156.524 40.8467 154.673 40.8458 154.584 40.8484C153.698 40.8797 152.988 40.7193 152.666 39.9211C152.616 39.7942 152.59 39.4716 152.59 38.9534C152.593 35.772 152.594 23.2165 152.593 1.28681C152.593 0.446905 153.288 0.00217507 154.075 0.000870871C155.214 -0.000868061 158.3 -4.00804e-06 163.332 0.00347386C163.821 0.00347386 164.174 0.19476 164.391 0.577325C164.508 0.784258 164.564 1.2016 164.559 1.82935C164.552 2.64143 164.55 7.07876 164.552 15.1413C164.552 15.1496 164.554 15.1578 164.559 15.1649C164.563 15.1721 164.569 15.178 164.576 15.182C164.583 15.186 164.591 15.188 164.6 15.1877C164.608 15.1875 164.616 15.1849 164.623 15.1805ZM163.626 27.6082C163.633 29.5501 164.821 31.1986 166.891 31.1921C168.962 31.1856 170.14 29.5292 170.134 27.5886C170.128 25.6466 168.94 23.9981 166.869 24.0047C164.799 24.0112 163.62 25.6675 163.626 27.6082Z" fill="#101828"/>
<path d="M101.951 16.675C101.953 16.6814 101.956 16.6872 101.96 16.6921C101.965 16.6969 101.971 16.7005 101.977 16.7026C101.983 16.7047 101.99 16.7051 101.996 16.704C102.003 16.7028 102.009 16.7 102.014 16.6959C103.845 15.2573 106.054 14.0092 108.398 13.6258C109.819 13.3927 111.308 13.408 112.863 13.6714C115.181 14.0635 116.995 15.1604 118.306 16.9619C119.739 18.9286 120.297 21.4992 120.522 23.8833C120.636 25.084 120.694 26.4408 120.698 27.9537C120.711 32.9097 120.713 36.7697 120.706 39.5337C120.704 40.0736 120.338 40.4688 119.883 40.6762C119.718 40.7518 119.423 40.7896 118.996 40.7896C113.522 40.7896 110.711 40.7883 110.563 40.7857C110.065 40.7788 109.707 40.6092 109.491 40.2771C109.355 40.0702 109.288 39.6702 109.289 39.0772C109.295 36.1619 109.296 32.3141 109.294 27.5338C109.293 26.4891 109.024 25.387 108.317 24.6828C107.683 24.0515 106.954 23.7359 106.003 23.7842C104.564 23.8563 103.392 24.445 102.487 25.5501C101.99 26.1565 101.932 26.7604 101.932 27.6237C101.933 33.284 101.934 37.1131 101.936 39.1111C101.937 40.3684 101.693 40.7896 100.446 40.7896C95.5024 40.787 92.7475 40.787 92.1815 40.7896C91.6024 40.7922 90.9047 40.6957 90.6673 40.1271C90.6056 39.9793 90.5747 39.7106 90.5747 39.3211C90.5747 27.8737 90.5747 15.2404 90.5747 1.42107C90.5747 0.851568 90.7725 0.467696 91.1681 0.269458C91.3759 0.165991 91.8241 0.114258 92.5127 0.114258C97.6061 0.120344 100.301 0.123388 100.599 0.123388C101.328 0.123388 101.929 0.72723 101.929 1.44976C101.936 7.61688 101.936 12.6272 101.929 16.4807C101.928 16.5433 101.936 16.608 101.951 16.675Z" fill="#101828"/>
<path d="M4.22347 14.1657C4.2226 12.8319 4.22521 10.91 4.2313 8.39984C4.23303 7.43299 4.40171 6.43832 4.73733 5.41583C5.92676 1.79016 9.04901 0.388144 12.6929 0.249899C13.2233 0.229901 13.5898 0.300327 13.7924 0.461179C14.1019 0.706368 14.2723 1.03677 14.3036 1.45238C14.3262 1.76104 14.3323 2.38009 14.3219 3.30955C14.3128 3.99426 14.1876 4.46116 13.6685 4.77808C13.5302 4.86155 13.2672 4.91329 12.8794 4.93328C12.0543 4.97589 11.3674 5.10848 10.8188 5.33106C9.50287 5.86579 9.07118 7.2678 9.06205 8.62286C9.0577 9.37321 9.05596 11.2391 9.05683 14.2205C9.05683 14.2253 9.05778 14.23 9.05961 14.2345C9.06145 14.2389 9.06414 14.2429 9.06753 14.2463C9.07092 14.2497 9.07494 14.2524 9.07938 14.2542C9.08381 14.2561 9.08855 14.257 9.09335 14.257C11.5557 14.2535 12.8551 14.2522 12.9916 14.2531C13.8402 14.26 14.2793 14.6778 14.3088 15.5064C14.3262 15.9985 14.3262 16.5533 14.3088 17.1706C14.2888 17.8496 14.0019 18.3 13.4481 18.5217C13.3835 18.5476 13.3144 18.5609 13.2446 18.5609H9.12074C9.10345 18.5609 9.08686 18.5677 9.07463 18.58C9.0624 18.5922 9.05553 18.6088 9.05553 18.6261C9.05988 25.1079 9.06031 32.1963 9.05683 39.891C9.05683 40.7101 8.25214 41.2122 7.48919 41.2044C6.12151 41.1922 5.42812 41.1857 5.40899 41.1848C4.4804 41.1535 4.21695 40.4401 4.21825 39.6302C4.23651 28.6941 4.23434 21.6827 4.21173 18.5961C4.21173 18.5867 4.20802 18.5778 4.20142 18.5712C4.19481 18.5646 4.18586 18.5609 4.17652 18.5609H1.15599C1.09895 18.5609 1.0422 18.5521 0.987751 18.5348C0.280875 18.3144 0.0148172 17.7105 0.00438358 16.9606C-0.00518055 16.3059 0.000905632 15.7877 0.0226423 15.406C0.0722019 14.5361 0.739952 14.2531 1.51595 14.2544C2.6906 14.257 3.56354 14.257 4.13478 14.2544C4.1583 14.2544 4.18086 14.2451 4.19749 14.2284C4.21413 14.2118 4.22347 14.1892 4.22347 14.1657Z" fill="#101828"/>
<path d="M45.195 29.8787C45.5236 32.0472 46.4701 33.8352 48.0342 35.2429C49.5593 36.6149 51.363 37.2748 53.4453 37.2227C55.6277 37.1679 57.6144 36.4549 59.4055 35.0838C60.0616 34.5817 60.741 34.1826 61.3423 35.0916C61.9952 36.0819 62.4982 36.8314 62.8512 37.34C63.146 37.7639 62.7 38.3065 62.3752 38.5412C61.0241 39.515 59.5968 40.3054 58.0935 40.9123C52.2637 43.2676 45.9762 41.0779 42.644 35.8324C41.2563 33.6474 40.4964 31.2551 40.3642 28.6554C40.1512 24.4324 41.4232 20.8037 44.1803 17.7692C47.2843 14.3509 52.1685 12.8707 56.6393 14.1983C60.4215 15.3199 63.4016 18.3926 64.7567 22.0822C65.3801 23.779 65.6005 25.6075 65.5861 27.3681C65.5757 28.6358 64.9775 29.4049 63.7916 29.6753C63.3273 29.7813 62.903 29.8344 62.5187 29.8344C54.3274 29.8379 48.5655 29.8379 45.2328 29.8344C45.2274 29.8343 45.222 29.8354 45.217 29.8377C45.212 29.84 45.2076 29.8433 45.204 29.8475C45.2004 29.8517 45.1978 29.8567 45.1962 29.8621C45.1946 29.8675 45.1942 29.8731 45.195 29.8787ZM53.1819 25.7575C58.2996 25.7575 60.871 25.7575 60.8962 25.7575C60.9002 25.7575 60.904 25.7567 60.9076 25.7551C60.9112 25.7535 60.9143 25.7511 60.9168 25.7481C60.9193 25.7451 60.9211 25.7415 60.9221 25.7377C60.923 25.7339 60.9231 25.73 60.9223 25.7262C60.4746 23.469 59.4095 21.5997 57.727 20.1181C56.3576 18.9113 54.8426 18.3079 53.1819 18.3079C51.5212 18.3079 50.0057 18.9113 48.6355 20.1181C46.9539 21.5997 45.8892 23.469 45.4415 25.7262C45.4407 25.7299 45.4408 25.7337 45.4417 25.7374C45.4425 25.7411 45.4442 25.7446 45.4466 25.7476C45.4489 25.7505 45.4519 25.753 45.4553 25.7547C45.4587 25.7564 45.4625 25.7573 45.4663 25.7575C45.4923 25.7575 48.0642 25.7575 53.1819 25.7575Z" fill="#101828"/>
<path d="M34.3037 37.3832C34.3037 37.3737 34.3007 37.3644 34.2951 37.3566C34.2896 37.3489 34.2817 37.3431 34.2728 37.3402C34.2639 37.3372 34.2543 37.3373 34.2455 37.3404C34.2368 37.3434 34.2293 37.3493 34.2242 37.3571C32.6122 39.7307 30.5776 41.2671 27.6275 41.6375C22.952 42.223 18.4303 40.3867 15.6563 36.5863C13.6674 33.8605 12.8249 30.6326 12.8979 27.243C12.9957 22.7461 15.0851 18.4071 18.8529 15.903C21.13 14.3892 23.7515 13.6937 26.7172 13.8163C30.069 13.9545 32.427 15.6252 34.2633 18.2884C34.2667 18.2932 34.2715 18.2969 34.2771 18.299C34.2827 18.301 34.2887 18.3012 34.2945 18.2996C34.3002 18.2981 34.3053 18.2948 34.309 18.2902C34.3128 18.2856 34.3151 18.2799 34.3155 18.274C34.3711 17.5576 34.4302 16.8111 34.4928 16.0347C34.562 15.1948 34.5894 14.3184 35.6849 14.2649C35.7431 14.2623 36.1918 14.2571 37.0308 14.2493C37.6516 14.2432 38.0772 14.3297 38.3076 14.5088C38.6702 14.7914 38.8537 15.1774 38.858 15.6669C38.8623 16.1208 38.8637 24.2173 38.8619 39.9563C38.8606 40.7428 38.1133 41.1927 37.4116 41.1927C36.2344 41.1945 35.6032 41.1927 35.5179 41.1875C34.7337 41.1414 34.332 40.7071 34.3129 39.8846C34.3024 39.4473 34.2994 38.6135 34.3037 37.3832ZM17.4691 27.9942C17.5865 33.5553 21.6152 37.9557 27.4619 37.0793C32.217 36.3672 34.3885 32.0738 34.2946 27.6395C34.2007 23.2052 31.8505 19.007 27.0706 18.4957C21.1913 17.8658 17.3517 22.4331 17.4691 27.9942Z" fill="#101828"/>
<path d="M141.446 37.6544C141.444 37.6491 141.441 37.6445 141.437 37.6408C141.432 37.6372 141.427 37.6346 141.422 37.6333C141.416 37.632 141.411 37.6321 141.405 37.6335C141.4 37.6349 141.395 37.6376 141.39 37.6413C139.636 39.2155 137.41 40.3528 135.158 41.0088C134.375 41.2366 133.482 41.3248 132.477 41.2735C131.088 41.2022 129.812 40.9336 128.648 40.4675C123.468 38.3899 121.945 32.7806 121.943 27.6955C121.942 22.8482 121.944 18.6339 121.95 15.0526C121.951 14.3914 122.813 13.9336 123.378 13.9349C125.589 13.9401 128.19 13.9388 131.18 13.931C131.984 13.9293 132.452 13.9545 132.584 14.0066C133.263 14.274 133.313 14.8739 133.312 15.6069C133.308 18.6413 133.308 22.5939 133.313 27.4647C133.32 32.1559 139.837 32.1259 139.834 27.4047C139.83 19.5725 139.83 15.5082 139.833 15.2117C139.841 14.4266 140.601 13.9401 141.31 13.9375C141.983 13.9349 144.928 13.9358 150.143 13.9401C151.082 13.9414 151.317 14.6653 151.313 15.4699C151.296 18.0818 151.295 26.0592 151.309 39.402C151.309 40.2367 150.571 40.7453 149.739 40.7714C149.077 40.7923 147.316 40.7984 144.455 40.7897C143.365 40.7858 142.648 40.8575 142.262 39.822C142.013 39.1542 141.741 38.4317 141.446 37.6544Z" fill="#101828"/>
<path d="M74.6919 30.7344C74.6878 30.7279 74.6821 30.7226 74.6754 30.7189C74.6686 30.7152 74.6611 30.7133 74.6534 30.7133C74.6458 30.7133 74.6382 30.7152 74.6315 30.7189C74.6248 30.7226 74.6191 30.7279 74.615 30.7344C72.9056 33.3593 70.9306 36.4037 68.69 39.8677C68.1618 40.6828 67.6766 41.2188 66.6033 41.2006C66.1294 41.1927 65.1156 41.1919 63.5619 41.198C63.2941 41.1988 63.0576 41.1427 62.8524 41.0297C62.7896 40.9955 62.7408 40.9405 62.7141 40.8744C62.6875 40.8082 62.6847 40.735 62.7063 40.6671C62.7889 40.4072 62.9189 40.1455 63.0963 39.882C63.8423 38.7787 66.7698 34.5105 71.8787 27.0774C71.8875 27.0643 71.8922 27.0488 71.8922 27.033C71.8922 27.0172 71.8875 27.0018 71.8787 26.9887C70.5502 25.042 67.8518 21.0846 63.7836 15.1166C63.511 14.7175 63.6897 14.2662 64.2009 14.2636C66.4155 14.2523 67.6266 14.2506 67.8344 14.2584C68.733 14.2923 69.2456 14.9379 69.6942 15.6422C71.7783 18.9105 73.4177 21.4819 74.6123 23.3565C74.6166 23.363 74.6224 23.3683 74.6293 23.3719C74.6361 23.3756 74.6437 23.3775 74.6515 23.3775C74.6592 23.3775 74.6669 23.3756 74.6737 23.3719C74.6805 23.3683 74.6863 23.363 74.6906 23.3565C77.1538 19.4613 78.7888 16.8729 79.5957 15.5913C80.2087 14.6171 80.5256 14.2506 81.7568 14.2532C82.7966 14.2549 83.85 14.2562 84.9168 14.2571C85.552 14.2584 85.6863 14.7996 85.3707 15.2718C84.8916 15.9873 82.4823 19.5335 78.1428 25.9101C77.9133 26.2475 77.6829 26.5966 77.4516 26.9574C77.4343 26.9849 77.4254 27.0168 77.4261 27.0493C77.4268 27.0817 77.437 27.1133 77.4555 27.14C80.7751 31.9864 83.7648 36.365 86.4245 40.2759C86.4888 40.3707 86.5458 40.5002 86.5953 40.6645C86.6132 40.7236 86.6121 40.7868 86.5922 40.8454C86.5724 40.9041 86.5347 40.9553 86.4845 40.9919C86.2958 41.1284 86.0667 41.1958 85.7972 41.194C85.425 41.1923 84.3056 41.1936 82.4388 41.198C81.5859 41.1993 81.0108 40.615 80.5843 39.9459C77.336 34.8639 75.3718 31.7934 74.6919 30.7344Z" fill="#101828"/>
</svg>
