<svg width="149" height="35" viewBox="0 0 149 35" fill="none" xmlns="http://www.w3.org/2000/svg">
<path d="M134.774 12.428C134.931 12.3308 135.045 12.2016 135.252 12.0681C136.215 11.4435 137.295 11.1232 138.503 11.1574C144.316 11.3229 148.309 15.4763 148.922 21.1182C149.17 23.4024 148.826 25.5496 147.89 27.5597C146.081 31.442 142.381 33.9992 138.041 33.7878C136.548 33.7159 135.245 33.2546 134.134 32.404C133.728 32.0944 133.286 31.6117 132.88 31.2049C132.873 31.1984 132.865 31.1937 132.856 31.1913C132.848 31.1888 132.838 31.1888 132.83 31.1912C132.821 31.1936 132.813 31.1983 132.806 31.2049C132.8 31.2114 132.795 31.2196 132.793 31.2284C132.721 31.5103 132.634 31.7961 132.535 32.0858C132.27 32.861 132.063 33.445 131.102 33.444C128.144 33.4404 126.628 33.4397 126.556 33.4418C125.829 33.4675 125.249 33.3361 124.985 32.6827C124.944 32.5787 124.923 32.3147 124.923 31.8904C124.925 29.2859 124.926 19.0069 124.925 1.05349C124.925 0.365873 125.494 0.00178069 126.138 0.000712966C127.071 -0.000710666 129.597 -3.28131e-06 133.717 0.00284398C134.117 0.00284398 134.406 0.159446 134.584 0.472645C134.68 0.642057 134.726 0.983726 134.721 1.49766C134.716 2.16249 134.714 5.79525 134.716 12.3959C134.716 12.4027 134.718 12.4094 134.721 12.4152C134.725 12.4211 134.729 12.4259 134.735 12.4292C134.741 12.4325 134.748 12.4341 134.755 12.4339C134.762 12.4337 134.768 12.4316 134.774 12.428ZM133.958 22.6023C133.963 24.1921 134.936 25.5417 136.631 25.5364C138.326 25.5311 139.29 24.175 139.286 22.5863C139.281 20.9964 138.308 19.6468 136.612 19.6522C134.918 19.6575 133.953 21.0135 133.958 22.6023Z" fill="#EFF6FC"/>
<path d="M83.4655 13.6517C83.4668 13.6569 83.4694 13.6617 83.4731 13.6657C83.4767 13.6696 83.4813 13.6726 83.4864 13.6743C83.4915 13.676 83.497 13.6764 83.5023 13.6754C83.5076 13.6745 83.5126 13.6722 83.5167 13.6688C85.0158 12.4911 86.8246 11.4693 88.7433 11.1554C89.9071 10.9646 91.1257 10.9771 92.3991 11.1927C94.2961 11.5138 95.7813 12.4117 96.8547 13.8866C98.0282 15.4967 98.4852 17.6012 98.6688 19.553C98.7621 20.536 98.8101 21.6468 98.813 22.8854C98.8236 26.9427 98.8258 30.1028 98.8194 32.3657C98.8183 32.8077 98.5183 33.1313 98.1456 33.301C98.0111 33.363 97.7691 33.3939 97.4196 33.3939C92.938 33.3939 90.6367 33.3929 90.5157 33.3907C90.1078 33.385 89.8152 33.2462 89.638 32.9743C89.527 32.8049 89.4718 32.4775 89.4725 31.992C89.4775 29.6053 89.4789 26.4551 89.4768 22.5416C89.4757 21.6863 89.2558 20.7841 88.6771 20.2075C88.1581 19.6908 87.5613 19.4324 86.7829 19.4719C85.6049 19.531 84.6453 20.0128 83.9043 20.9176C83.4975 21.4141 83.4495 21.9084 83.4495 22.6152C83.4502 27.2492 83.4513 30.384 83.4527 32.0198C83.4537 33.049 83.2541 33.3939 82.2333 33.3939C78.186 33.3918 75.9306 33.3918 75.4672 33.3939C74.9931 33.3961 74.4219 33.317 74.2275 32.8515C74.177 32.7305 74.1517 32.5106 74.1517 32.1917C74.1517 22.8199 74.1517 12.4772 74.1517 1.16361C74.1517 0.697372 74.3137 0.383103 74.6375 0.220809C74.8077 0.136103 75.1746 0.09375 75.7384 0.09375C79.9082 0.0987327 82.1148 0.101225 82.3583 0.101225C82.9551 0.101225 83.4473 0.595579 83.4473 1.1871C83.453 6.23601 83.453 10.3378 83.4473 13.4926C83.4466 13.5439 83.4527 13.5969 83.4655 13.6517Z" fill="#EFF6FC"/>
<path d="M3.45768 11.5975C3.45696 10.5056 3.4591 8.93208 3.46408 6.87707C3.46551 6.08553 3.6036 5.27121 3.87836 4.43412C4.85212 1.46584 7.40825 0.318043 10.3915 0.204864C10.8257 0.188492 11.1257 0.246149 11.2916 0.377835C11.545 0.578567 11.6845 0.849061 11.7101 1.18931C11.7286 1.442 11.7336 1.94882 11.7251 2.70975C11.7176 3.2703 11.6151 3.65255 11.1901 3.912C11.077 3.98034 10.8616 4.02269 10.5442 4.03906C9.86865 4.07394 9.30631 4.18249 8.85716 4.36472C7.77982 4.80248 7.42641 5.95029 7.41893 7.05965C7.41537 7.67395 7.41395 9.2015 7.41466 11.6423C7.41466 11.6462 7.41543 11.6501 7.41694 11.6538C7.41844 11.6574 7.42064 11.6607 7.42342 11.6635C7.42619 11.6662 7.42949 11.6684 7.43312 11.6699C7.43674 11.6714 7.44063 11.6722 7.44456 11.6722C9.46042 11.6694 10.5242 11.6683 10.636 11.669C11.3307 11.6747 11.6902 12.0167 11.7144 12.6951C11.7286 13.098 11.7286 13.5521 11.7144 14.0575C11.698 14.6134 11.4631 14.9822 11.0097 15.1637C10.9568 15.1848 10.9003 15.1957 10.8431 15.1957H7.46698C7.45282 15.1957 7.43924 15.2013 7.42923 15.2113C7.41922 15.2214 7.41359 15.2349 7.41359 15.2491C7.41715 20.5557 7.41751 26.3588 7.41466 32.6583C7.41466 33.3289 6.75588 33.7399 6.13126 33.7335C5.01157 33.7236 4.4439 33.7182 4.42824 33.7175C3.66802 33.6919 3.45234 33.1078 3.4534 32.4448C3.46835 23.4916 3.46657 17.7515 3.44807 15.2245C3.44807 15.2169 3.44503 15.2096 3.43962 15.2041C3.43422 15.1987 3.42688 15.1957 3.41924 15.1957H0.946389C0.899686 15.1957 0.853229 15.1885 0.808654 15.1744C0.229947 14.9939 0.0121305 14.4996 0.00358875 13.8856C-0.00424122 13.3496 0.000741424 12.9254 0.0185368 12.6129C0.0591103 11.9007 0.605785 11.669 1.24108 11.6701C2.20274 11.6722 2.91741 11.6722 3.38507 11.6701C3.40433 11.6701 3.42279 11.6624 3.43641 11.6488C3.45003 11.6352 3.45768 11.6167 3.45768 11.5975Z" fill="#EFF6FC"/>
<path d="M37.0002 24.4612C37.2693 26.2365 38.0441 27.7003 39.3247 28.8527C40.5732 29.976 42.0498 30.5162 43.7546 30.4735C45.5413 30.4287 47.1678 29.845 48.6341 28.7225C49.1712 28.3114 49.7275 27.9847 50.2197 28.7289C50.7543 29.5396 51.1661 30.1532 51.4551 30.5696C51.6964 30.9166 51.3312 31.3608 51.0654 31.553C49.9592 32.3502 48.7907 32.9973 47.56 33.4941C42.7873 35.4224 37.6398 33.6297 34.9118 29.3353C33.7757 27.5466 33.1536 25.588 33.0454 23.4597C32.871 20.0024 33.9124 17.0316 36.1695 14.5474C38.7107 11.7489 42.7093 10.537 46.3695 11.6239C49.4659 12.5422 51.9056 15.0577 53.015 18.0783C53.5254 19.4674 53.7058 20.9644 53.6941 22.4058C53.6855 23.4436 53.1958 24.0732 52.2249 24.2946C51.8448 24.3815 51.4974 24.4249 51.1828 24.4249C44.4768 24.4277 39.7596 24.4277 37.0312 24.4249C37.0267 24.4248 37.0223 24.4257 37.0183 24.4276C37.0142 24.4295 37.0106 24.4322 37.0076 24.4357C37.0047 24.4391 37.0025 24.4432 37.0012 24.4476C36.9999 24.452 36.9996 24.4566 37.0002 24.4612ZM43.539 21.0872C47.7287 21.0872 49.8339 21.0872 49.8546 21.0872C49.8578 21.0872 49.8609 21.0866 49.8638 21.0853C49.8668 21.0839 49.8693 21.082 49.8714 21.0795C49.8734 21.077 49.8749 21.0741 49.8757 21.071C49.8765 21.0679 49.8765 21.0647 49.8759 21.0616C49.5093 19.2137 48.6373 17.6833 47.26 16.4703C46.1389 15.4823 44.8985 14.9883 43.539 14.9883C42.1794 14.9883 40.9387 15.4823 39.8169 16.4703C38.4402 17.6833 37.5686 19.2137 37.202 21.0616C37.2014 21.0646 37.2014 21.0677 37.2022 21.0708C37.2029 21.0738 37.2043 21.0766 37.2062 21.0791C37.2081 21.0815 37.2106 21.0835 37.2134 21.0849C37.2161 21.0863 37.2192 21.0871 37.2223 21.0872C37.2437 21.0872 39.3492 21.0872 43.539 21.0872Z" fill="#EFF6FC"/>
<path d="M28.0837 30.6049C28.0837 30.5971 28.0812 30.5895 28.0766 30.5831C28.0721 30.5768 28.0656 30.5721 28.0583 30.5697C28.051 30.5673 28.0432 30.5673 28.036 30.5698C28.0288 30.5723 28.0227 30.5771 28.0185 30.5835C26.6988 32.5268 25.0332 33.7845 22.618 34.0878C18.7902 34.5672 15.0884 33.0638 12.8173 29.9525C11.1891 27.7209 10.4993 25.0783 10.5591 22.3033C10.6392 18.6218 12.3497 15.0695 15.4343 13.0194C17.2986 11.7802 19.4447 11.2107 21.8727 11.3111C24.6168 11.4243 26.5472 12.792 28.0506 14.9723C28.0533 14.9763 28.0573 14.9793 28.0618 14.981C28.0664 14.9826 28.0714 14.9828 28.0761 14.9815C28.0808 14.9802 28.0849 14.9775 28.088 14.9738C28.0911 14.97 28.0929 14.9654 28.0933 14.9606C28.1388 14.374 28.1872 13.7629 28.2385 13.1273C28.2951 12.4397 28.3175 11.7222 29.2144 11.6784C29.2621 11.6762 29.6294 11.672 30.3163 11.6656C30.8245 11.6606 31.1729 11.7314 31.3616 11.878C31.6584 12.1094 31.8086 12.4254 31.8122 12.8262C31.8157 13.1978 31.8168 19.8262 31.8154 32.7115C31.8143 33.3553 31.2025 33.7237 30.628 33.7237C29.6642 33.7251 29.1475 33.7237 29.0777 33.7194C28.4357 33.6817 28.1068 33.3261 28.0911 32.6528C28.0826 32.2947 28.0801 31.6121 28.0837 30.6049ZM14.3015 22.9183C14.3976 27.4711 17.6958 31.0736 22.4824 30.3561C26.3753 29.7731 28.1531 26.2582 28.0762 22.6279C27.9993 18.9976 26.0753 15.5606 22.1621 15.1421C17.3488 14.6264 14.2054 18.3655 14.3015 22.9183Z" fill="#EFF6FC"/>
<path d="M115.799 30.8267C115.798 30.8225 115.795 30.8187 115.791 30.8157C115.788 30.8127 115.784 30.8106 115.779 30.8095C115.775 30.8085 115.77 30.8085 115.766 30.8096C115.761 30.8108 115.757 30.813 115.753 30.8161C114.317 32.1048 112.495 33.0359 110.651 33.5729C110.01 33.7594 109.279 33.8317 108.457 33.7897C107.319 33.7313 106.274 33.5114 105.322 33.1298C101.081 31.4289 99.8337 26.8367 99.8326 22.6736C99.8312 18.7052 99.833 15.2551 99.838 12.3231C99.839 11.7818 100.545 11.407 101.007 11.4081C102.817 11.4123 104.946 11.4113 107.394 11.4049C108.053 11.4034 108.436 11.4241 108.544 11.4668C109.099 11.6857 109.141 12.1768 109.14 12.7769C109.136 15.2611 109.137 18.497 109.141 22.4846C109.146 26.3252 114.482 26.3007 114.48 22.4355C114.476 16.0235 114.476 12.6961 114.479 12.4534C114.485 11.8106 115.107 11.4123 115.687 11.4102C116.239 11.4081 118.649 11.4088 122.919 11.4123C123.688 11.4134 123.88 12.006 123.877 12.6648C123.863 14.8031 123.862 21.334 123.874 32.2575C123.874 32.9408 123.269 33.3573 122.588 33.3786C122.046 33.3957 120.604 33.4007 118.263 33.3936C117.37 33.3904 116.783 33.4491 116.467 32.6013C116.263 32.0546 116.041 31.4631 115.799 30.8267Z" fill="#EFF6FC"/>
<path d="M61.1489 25.1618C61.1455 25.1565 61.1409 25.1521 61.1354 25.1491C61.1298 25.1461 61.1237 25.1445 61.1174 25.1445C61.1111 25.1445 61.1049 25.1461 61.0994 25.1491C61.0939 25.1521 61.0893 25.1565 61.0859 25.1618C59.6865 27.3108 58.0696 29.8032 56.2352 32.6391C55.8028 33.3064 55.4056 33.7452 54.5269 33.7303C54.1389 33.7239 53.3089 33.7232 52.0369 33.7281C51.8177 33.7288 51.6241 33.6829 51.4561 33.5904C51.4047 33.5624 51.3647 33.5174 51.3429 33.4632C51.3211 33.4091 51.3188 33.3491 51.3365 33.2936C51.4041 33.0807 51.5105 32.8665 51.6558 32.6508C52.2665 31.7475 54.6632 28.2532 58.8458 22.1679C58.853 22.1572 58.8569 22.1445 58.8569 22.1316C58.8569 22.1187 58.853 22.106 58.8458 22.0953C57.7582 20.5015 55.549 17.2617 52.2184 12.3758C51.9953 12.0491 52.1416 11.6796 52.5601 11.6775C54.3731 11.6682 55.3647 11.6668 55.5348 11.6732C56.2705 11.701 56.6901 12.2295 57.0574 12.8061C58.7636 15.4818 60.1057 17.587 61.0838 19.1217C61.0873 19.127 61.092 19.1313 61.0976 19.1343C61.1032 19.1373 61.1095 19.1389 61.1158 19.1389C61.1221 19.1389 61.1284 19.1373 61.134 19.1343C61.1396 19.1313 61.1443 19.127 61.1478 19.1217C63.1644 15.9327 64.503 13.8137 65.1635 12.7644C65.6654 11.9669 65.9248 11.6668 66.9328 11.669C67.7841 11.6704 68.6464 11.6715 69.5198 11.6722C70.0398 11.6732 70.1498 12.1163 69.8914 12.5028C69.4992 13.0887 67.5268 15.9918 63.9741 21.2123C63.7862 21.4885 63.5975 21.7743 63.4082 22.0697C63.394 22.0921 63.3868 22.1183 63.3873 22.1449C63.3879 22.1715 63.3963 22.1973 63.4114 22.2191C66.1291 26.1868 68.5767 29.7715 70.7541 32.9733C70.8068 33.0508 70.8534 33.1569 70.894 33.2914C70.9086 33.3398 70.9077 33.3915 70.8915 33.4395C70.8752 33.4875 70.8444 33.5294 70.8033 33.5594C70.6488 33.6712 70.4612 33.7264 70.2406 33.7249C69.9359 33.7235 69.0194 33.7246 67.4912 33.7281C66.7929 33.7292 66.322 33.2509 65.9729 32.7031C63.3135 28.5426 61.7055 26.0288 61.1489 25.1618Z" fill="#EFF6FC"/>
</svg>
